<mxfile host="app.diagrams.net" modified="2022-05-28T03:14:24.523Z" agent="5.0 (X11)" etag="JTd_5sAsRBay4F-nDQHZ" version="18.1.2" type="github">
  <diagram id="R2lEEEUBdFMjLlhIrx00" name="Page-1">
    <mxGraphModel dx="2108" dy="794" grid="1" gridSize="10" guides="1" tooltips="1" connect="1" arrows="1" fold="1" page="1" pageScale="1" pageWidth="850" pageHeight="1100" math="0" shadow="0" extFonts="Permanent Marker^https://fonts.googleapis.com/css?family=Permanent+Marker">
      <root>
        <mxCell id="0" />
        <mxCell id="1" parent="0" />
        <mxCell id="hu6AAIm_FNznQTtF9Akm-2" value="User" style="shape=table;startSize=30;container=1;collapsible=1;childLayout=tableLayout;fixedRows=1;rowLines=0;fontStyle=1;align=center;resizeLast=1;fillColor=#dae8fc;strokeColor=#6c8ebf;" vertex="1" parent="1">
          <mxGeometry x="-390" y="335" width="250" height="120" as="geometry" />
        </mxCell>
        <mxCell id="hu6AAIm_FNznQTtF9Akm-3" value="" style="shape=partialRectangle;collapsible=0;dropTarget=0;pointerEvents=0;fillColor=#f5f5f5;points=[[0,0.5],[1,0.5]];portConstraint=eastwest;top=0;left=0;right=0;bottom=1;fontColor=#333333;strokeColor=#666666;" vertex="1" parent="hu6AAIm_FNznQTtF9Akm-2">
          <mxGeometry y="30" width="250" height="30" as="geometry" />
        </mxCell>
        <mxCell id="hu6AAIm_FNznQTtF9Akm-4" value="PK" style="shape=partialRectangle;overflow=hidden;connectable=0;fillColor=#f5f5f5;top=0;left=0;bottom=0;right=0;fontStyle=1;fontColor=#333333;strokeColor=#666666;" vertex="1" parent="hu6AAIm_FNznQTtF9Akm-3">
          <mxGeometry width="30" height="30" as="geometry">
            <mxRectangle width="30" height="30" as="alternateBounds" />
          </mxGeometry>
        </mxCell>
        <mxCell id="hu6AAIm_FNznQTtF9Akm-5" value="name                                  text" style="shape=partialRectangle;overflow=hidden;connectable=0;fillColor=#f5f5f5;top=0;left=0;bottom=0;right=0;align=left;spacingLeft=6;fontStyle=1;fontColor=#333333;strokeColor=default;gradientColor=none;" vertex="1" parent="hu6AAIm_FNznQTtF9Akm-3">
          <mxGeometry x="30" width="220" height="30" as="geometry">
            <mxRectangle width="220" height="30" as="alternateBounds" />
          </mxGeometry>
        </mxCell>
        <mxCell id="hu6AAIm_FNznQTtF9Akm-6" value="" style="shape=partialRectangle;collapsible=0;dropTarget=0;pointerEvents=0;fillColor=#f5f5f5;points=[[0,0.5],[1,0.5]];portConstraint=eastwest;top=0;left=0;right=0;bottom=0;fontColor=#333333;strokeColor=#666666;" vertex="1" parent="hu6AAIm_FNznQTtF9Akm-2">
          <mxGeometry y="60" width="250" height="30" as="geometry" />
        </mxCell>
        <mxCell id="hu6AAIm_FNznQTtF9Akm-7" value="FK1" style="shape=partialRectangle;overflow=hidden;connectable=0;fillColor=#f5f5f5;top=0;left=0;bottom=0;right=0;fontColor=#333333;strokeColor=#666666;" vertex="1" parent="hu6AAIm_FNznQTtF9Akm-6">
          <mxGeometry width="30" height="30" as="geometry">
            <mxRectangle width="30" height="30" as="alternateBounds" />
          </mxGeometry>
        </mxCell>
        <mxCell id="hu6AAIm_FNznQTtF9Akm-8" value="password                            text" style="shape=partialRectangle;overflow=hidden;connectable=0;fillColor=#f5f5f5;top=0;left=0;bottom=0;right=0;align=left;spacingLeft=6;fontColor=#333333;strokeColor=#666666;" vertex="1" parent="hu6AAIm_FNznQTtF9Akm-6">
          <mxGeometry x="30" width="220" height="30" as="geometry">
            <mxRectangle width="220" height="30" as="alternateBounds" />
          </mxGeometry>
        </mxCell>
        <mxCell id="hu6AAIm_FNznQTtF9Akm-9" value="" style="shape=partialRectangle;collapsible=0;dropTarget=0;pointerEvents=0;fillColor=#f5f5f5;points=[[0,0.5],[1,0.5]];portConstraint=eastwest;top=0;left=0;right=0;bottom=0;fontColor=#333333;strokeColor=#666666;" vertex="1" parent="hu6AAIm_FNznQTtF9Akm-2">
          <mxGeometry y="90" width="250" height="30" as="geometry" />
        </mxCell>
        <mxCell id="hu6AAIm_FNznQTtF9Akm-10" value="" style="shape=partialRectangle;overflow=hidden;connectable=0;fillColor=#f5f5f5;top=0;left=0;bottom=0;right=0;fontColor=#333333;strokeColor=#666666;" vertex="1" parent="hu6AAIm_FNznQTtF9Akm-9">
          <mxGeometry width="30" height="30" as="geometry">
            <mxRectangle width="30" height="30" as="alternateBounds" />
          </mxGeometry>
        </mxCell>
        <mxCell id="hu6AAIm_FNznQTtF9Akm-11" value="icon                                    text" style="shape=partialRectangle;overflow=hidden;connectable=0;fillColor=#f5f5f5;top=0;left=0;bottom=0;right=0;align=left;spacingLeft=6;fontColor=#333333;strokeColor=#666666;" vertex="1" parent="hu6AAIm_FNznQTtF9Akm-9">
          <mxGeometry x="30" width="220" height="30" as="geometry">
            <mxRectangle width="220" height="30" as="alternateBounds" />
          </mxGeometry>
        </mxCell>
        <mxCell id="hu6AAIm_FNznQTtF9Akm-39" value="Student" style="shape=table;startSize=30;container=1;collapsible=1;childLayout=tableLayout;fixedRows=1;rowLines=0;fontStyle=1;align=center;resizeLast=1;fillColor=#dae8fc;strokeColor=#6c8ebf;" vertex="1" parent="1">
          <mxGeometry x="-28" y="320" width="250" height="150" as="geometry" />
        </mxCell>
        <mxCell id="hu6AAIm_FNznQTtF9Akm-40" value="" style="shape=partialRectangle;collapsible=0;dropTarget=0;pointerEvents=0;fillColor=#f5f5f5;points=[[0,0.5],[1,0.5]];portConstraint=eastwest;top=0;left=0;right=0;bottom=1;fontColor=#333333;strokeColor=#666666;" vertex="1" parent="hu6AAIm_FNznQTtF9Akm-39">
          <mxGeometry y="30" width="250" height="30" as="geometry" />
        </mxCell>
        <mxCell id="hu6AAIm_FNznQTtF9Akm-41" value="PK" style="shape=partialRectangle;overflow=hidden;connectable=0;fillColor=#f5f5f5;top=0;left=0;bottom=0;right=0;fontStyle=1;fontColor=#333333;strokeColor=#666666;" vertex="1" parent="hu6AAIm_FNznQTtF9Akm-40">
          <mxGeometry width="30" height="30" as="geometry">
            <mxRectangle width="30" height="30" as="alternateBounds" />
          </mxGeometry>
        </mxCell>
        <mxCell id="hu6AAIm_FNznQTtF9Akm-42" value="name                                   text" style="shape=partialRectangle;overflow=hidden;connectable=0;fillColor=#f5f5f5;top=0;left=0;bottom=0;right=0;align=left;spacingLeft=6;fontStyle=1;fontColor=#333333;strokeColor=default;gradientColor=none;" vertex="1" parent="hu6AAIm_FNznQTtF9Akm-40">
          <mxGeometry x="30" width="220" height="30" as="geometry">
            <mxRectangle width="220" height="30" as="alternateBounds" />
          </mxGeometry>
        </mxCell>
        <mxCell id="hu6AAIm_FNznQTtF9Akm-43" value="" style="shape=partialRectangle;collapsible=0;dropTarget=0;pointerEvents=0;fillColor=#f5f5f5;points=[[0,0.5],[1,0.5]];portConstraint=eastwest;top=0;left=0;right=0;bottom=0;fontColor=#333333;strokeColor=#666666;" vertex="1" parent="hu6AAIm_FNznQTtF9Akm-39">
          <mxGeometry y="60" width="250" height="30" as="geometry" />
        </mxCell>
        <mxCell id="hu6AAIm_FNznQTtF9Akm-44" value="FK1" style="shape=partialRectangle;overflow=hidden;connectable=0;fillColor=#f5f5f5;top=0;left=0;bottom=0;right=0;fontColor=#333333;strokeColor=#666666;" vertex="1" parent="hu6AAIm_FNznQTtF9Akm-43">
          <mxGeometry width="30" height="30" as="geometry">
            <mxRectangle width="30" height="30" as="alternateBounds" />
          </mxGeometry>
        </mxCell>
        <mxCell id="hu6AAIm_FNznQTtF9Akm-45" value="password                             text" style="shape=partialRectangle;overflow=hidden;connectable=0;fillColor=#f5f5f5;top=0;left=0;bottom=0;right=0;align=left;spacingLeft=6;fontColor=#333333;strokeColor=#666666;" vertex="1" parent="hu6AAIm_FNznQTtF9Akm-43">
          <mxGeometry x="30" width="220" height="30" as="geometry">
            <mxRectangle width="220" height="30" as="alternateBounds" />
          </mxGeometry>
        </mxCell>
        <mxCell id="hu6AAIm_FNznQTtF9Akm-46" value="" style="shape=partialRectangle;collapsible=0;dropTarget=0;pointerEvents=0;fillColor=#f5f5f5;points=[[0,0.5],[1,0.5]];portConstraint=eastwest;top=0;left=0;right=0;bottom=0;fontColor=#333333;strokeColor=#666666;" vertex="1" parent="hu6AAIm_FNznQTtF9Akm-39">
          <mxGeometry y="90" width="250" height="30" as="geometry" />
        </mxCell>
        <mxCell id="hu6AAIm_FNznQTtF9Akm-47" value="" style="shape=partialRectangle;overflow=hidden;connectable=0;fillColor=#f5f5f5;top=0;left=0;bottom=0;right=0;fontColor=#333333;strokeColor=#666666;" vertex="1" parent="hu6AAIm_FNznQTtF9Akm-46">
          <mxGeometry width="30" height="30" as="geometry">
            <mxRectangle width="30" height="30" as="alternateBounds" />
          </mxGeometry>
        </mxCell>
        <mxCell id="hu6AAIm_FNznQTtF9Akm-48" value="icon                                      text" style="shape=partialRectangle;overflow=hidden;connectable=0;fillColor=#f5f5f5;top=0;left=0;bottom=0;right=0;align=left;spacingLeft=6;fontColor=#333333;strokeColor=#666666;" vertex="1" parent="hu6AAIm_FNznQTtF9Akm-46">
          <mxGeometry x="30" width="220" height="30" as="geometry">
            <mxRectangle width="220" height="30" as="alternateBounds" />
          </mxGeometry>
        </mxCell>
        <mxCell id="hu6AAIm_FNznQTtF9Akm-49" value="Teacher" style="shape=table;startSize=30;container=1;collapsible=1;childLayout=tableLayout;fixedRows=1;rowLines=0;fontStyle=1;align=center;resizeLast=1;fillColor=#dae8fc;strokeColor=#6c8ebf;" vertex="1" parent="1">
          <mxGeometry x="-30" y="540" width="250" height="120" as="geometry" />
        </mxCell>
        <mxCell id="hu6AAIm_FNznQTtF9Akm-50" value="" style="shape=partialRectangle;collapsible=0;dropTarget=0;pointerEvents=0;fillColor=#f5f5f5;points=[[0,0.5],[1,0.5]];portConstraint=eastwest;top=0;left=0;right=0;bottom=1;fontColor=#333333;strokeColor=#666666;" vertex="1" parent="hu6AAIm_FNznQTtF9Akm-49">
          <mxGeometry y="30" width="250" height="30" as="geometry" />
        </mxCell>
        <mxCell id="hu6AAIm_FNznQTtF9Akm-51" value="PK" style="shape=partialRectangle;overflow=hidden;connectable=0;fillColor=#f5f5f5;top=0;left=0;bottom=0;right=0;fontStyle=1;fontColor=#333333;strokeColor=#666666;" vertex="1" parent="hu6AAIm_FNznQTtF9Akm-50">
          <mxGeometry width="30" height="30" as="geometry">
            <mxRectangle width="30" height="30" as="alternateBounds" />
          </mxGeometry>
        </mxCell>
        <mxCell id="hu6AAIm_FNznQTtF9Akm-52" value="name                                        text" style="shape=partialRectangle;overflow=hidden;connectable=0;fillColor=#f5f5f5;top=0;left=0;bottom=0;right=0;align=left;spacingLeft=6;fontStyle=1;fontColor=#333333;strokeColor=default;gradientColor=none;" vertex="1" parent="hu6AAIm_FNznQTtF9Akm-50">
          <mxGeometry x="30" width="220" height="30" as="geometry">
            <mxRectangle width="220" height="30" as="alternateBounds" />
          </mxGeometry>
        </mxCell>
        <mxCell id="hu6AAIm_FNznQTtF9Akm-53" value="" style="shape=partialRectangle;collapsible=0;dropTarget=0;pointerEvents=0;fillColor=#f5f5f5;points=[[0,0.5],[1,0.5]];portConstraint=eastwest;top=0;left=0;right=0;bottom=0;fontColor=#333333;strokeColor=#666666;" vertex="1" parent="hu6AAIm_FNznQTtF9Akm-49">
          <mxGeometry y="60" width="250" height="30" as="geometry" />
        </mxCell>
        <mxCell id="hu6AAIm_FNznQTtF9Akm-54" value="FK1" style="shape=partialRectangle;overflow=hidden;connectable=0;fillColor=#f5f5f5;top=0;left=0;bottom=0;right=0;fontColor=#333333;strokeColor=#666666;" vertex="1" parent="hu6AAIm_FNznQTtF9Akm-53">
          <mxGeometry width="30" height="30" as="geometry">
            <mxRectangle width="30" height="30" as="alternateBounds" />
          </mxGeometry>
        </mxCell>
        <mxCell id="hu6AAIm_FNznQTtF9Akm-55" value="password                                  text" style="shape=partialRectangle;overflow=hidden;connectable=0;fillColor=#f5f5f5;top=0;left=0;bottom=0;right=0;align=left;spacingLeft=6;fontColor=#333333;strokeColor=#666666;" vertex="1" parent="hu6AAIm_FNznQTtF9Akm-53">
          <mxGeometry x="30" width="220" height="30" as="geometry">
            <mxRectangle width="220" height="30" as="alternateBounds" />
          </mxGeometry>
        </mxCell>
        <mxCell id="hu6AAIm_FNznQTtF9Akm-56" value="" style="shape=partialRectangle;collapsible=0;dropTarget=0;pointerEvents=0;fillColor=#f5f5f5;points=[[0,0.5],[1,0.5]];portConstraint=eastwest;top=0;left=0;right=0;bottom=0;fontColor=#333333;strokeColor=#666666;" vertex="1" parent="hu6AAIm_FNznQTtF9Akm-49">
          <mxGeometry y="90" width="250" height="30" as="geometry" />
        </mxCell>
        <mxCell id="hu6AAIm_FNznQTtF9Akm-57" value="" style="shape=partialRectangle;overflow=hidden;connectable=0;fillColor=#f5f5f5;top=0;left=0;bottom=0;right=0;fontColor=#333333;strokeColor=#666666;" vertex="1" parent="hu6AAIm_FNznQTtF9Akm-56">
          <mxGeometry width="30" height="30" as="geometry">
            <mxRectangle width="30" height="30" as="alternateBounds" />
          </mxGeometry>
        </mxCell>
        <mxCell id="hu6AAIm_FNznQTtF9Akm-58" value="icon                                          text" style="shape=partialRectangle;overflow=hidden;connectable=0;fillColor=#f5f5f5;top=0;left=0;bottom=0;right=0;align=left;spacingLeft=6;fontColor=#333333;strokeColor=#666666;" vertex="1" parent="hu6AAIm_FNznQTtF9Akm-56">
          <mxGeometry x="30" width="220" height="30" as="geometry">
            <mxRectangle width="220" height="30" as="alternateBounds" />
          </mxGeometry>
        </mxCell>
        <mxCell id="hu6AAIm_FNznQTtF9Akm-69" value="Questionnaire" style="shape=table;startSize=30;container=1;collapsible=1;childLayout=tableLayout;fixedRows=1;rowLines=0;fontStyle=1;align=center;resizeLast=1;fillColor=#dae8fc;strokeColor=#6c8ebf;" vertex="1" parent="1">
          <mxGeometry x="362" y="110" width="250" height="120" as="geometry" />
        </mxCell>
        <mxCell id="hu6AAIm_FNznQTtF9Akm-70" value="" style="shape=partialRectangle;collapsible=0;dropTarget=0;pointerEvents=0;fillColor=#f5f5f5;points=[[0,0.5],[1,0.5]];portConstraint=eastwest;top=0;left=0;right=0;bottom=1;fontColor=#333333;strokeColor=#666666;" vertex="1" parent="hu6AAIm_FNznQTtF9Akm-69">
          <mxGeometry y="30" width="250" height="30" as="geometry" />
        </mxCell>
        <mxCell id="hu6AAIm_FNznQTtF9Akm-71" value="PK" style="shape=partialRectangle;overflow=hidden;connectable=0;fillColor=#f5f5f5;top=0;left=0;bottom=0;right=0;fontStyle=1;fontColor=#333333;strokeColor=#666666;" vertex="1" parent="hu6AAIm_FNznQTtF9Akm-70">
          <mxGeometry width="30" height="30" as="geometry">
            <mxRectangle width="30" height="30" as="alternateBounds" />
          </mxGeometry>
        </mxCell>
        <mxCell id="hu6AAIm_FNznQTtF9Akm-72" value="id                                               text" style="shape=partialRectangle;overflow=hidden;connectable=0;fillColor=#f5f5f5;top=0;left=0;bottom=0;right=0;align=left;spacingLeft=6;fontStyle=1;fontColor=#333333;strokeColor=default;gradientColor=none;" vertex="1" parent="hu6AAIm_FNznQTtF9Akm-70">
          <mxGeometry x="30" width="220" height="30" as="geometry">
            <mxRectangle width="220" height="30" as="alternateBounds" />
          </mxGeometry>
        </mxCell>
        <mxCell id="hu6AAIm_FNznQTtF9Akm-73" value="Score" style="shape=table;startSize=30;container=1;collapsible=1;childLayout=tableLayout;fixedRows=1;rowLines=0;fontStyle=1;align=center;resizeLast=1;fillColor=#dae8fc;strokeColor=#6c8ebf;" vertex="1" parent="1">
          <mxGeometry x="362" y="380" width="250" height="210" as="geometry" />
        </mxCell>
        <mxCell id="hu6AAIm_FNznQTtF9Akm-74" value="" style="shape=partialRectangle;collapsible=0;dropTarget=0;pointerEvents=0;fillColor=#f5f5f5;points=[[0,0.5],[1,0.5]];portConstraint=eastwest;top=0;left=0;right=0;bottom=1;fontColor=#333333;strokeColor=#666666;" vertex="1" parent="hu6AAIm_FNznQTtF9Akm-73">
          <mxGeometry y="30" width="250" height="30" as="geometry" />
        </mxCell>
        <mxCell id="hu6AAIm_FNznQTtF9Akm-75" value="PK" style="shape=partialRectangle;overflow=hidden;connectable=0;fillColor=#f5f5f5;top=0;left=0;bottom=0;right=0;fontStyle=1;fontColor=#333333;strokeColor=#666666;" vertex="1" parent="hu6AAIm_FNznQTtF9Akm-74">
          <mxGeometry width="30" height="30" as="geometry">
            <mxRectangle width="30" height="30" as="alternateBounds" />
          </mxGeometry>
        </mxCell>
        <mxCell id="hu6AAIm_FNznQTtF9Akm-76" value="score_id" style="shape=partialRectangle;overflow=hidden;connectable=0;fillColor=#f5f5f5;top=0;left=0;bottom=0;right=0;align=left;spacingLeft=6;fontStyle=1;fontColor=#333333;strokeColor=default;gradientColor=none;" vertex="1" parent="hu6AAIm_FNznQTtF9Akm-74">
          <mxGeometry x="30" width="220" height="30" as="geometry">
            <mxRectangle width="220" height="30" as="alternateBounds" />
          </mxGeometry>
        </mxCell>
        <mxCell id="hu6AAIm_FNznQTtF9Akm-77" value="" style="shape=partialRectangle;collapsible=0;dropTarget=0;pointerEvents=0;fillColor=#f5f5f5;points=[[0,0.5],[1,0.5]];portConstraint=eastwest;top=0;left=0;right=0;bottom=0;fontColor=#333333;strokeColor=#666666;" vertex="1" parent="hu6AAIm_FNznQTtF9Akm-73">
          <mxGeometry y="60" width="250" height="30" as="geometry" />
        </mxCell>
        <mxCell id="hu6AAIm_FNznQTtF9Akm-78" value="FK1" style="shape=partialRectangle;overflow=hidden;connectable=0;fillColor=#f5f5f5;top=0;left=0;bottom=0;right=0;fontColor=#333333;strokeColor=#666666;" vertex="1" parent="hu6AAIm_FNznQTtF9Akm-77">
          <mxGeometry width="30" height="30" as="geometry">
            <mxRectangle width="30" height="30" as="alternateBounds" />
          </mxGeometry>
        </mxCell>
        <mxCell id="hu6AAIm_FNznQTtF9Akm-79" value="questionnaretype                       text" style="shape=partialRectangle;overflow=hidden;connectable=0;fillColor=#f5f5f5;top=0;left=0;bottom=0;right=0;align=left;spacingLeft=6;fontColor=#333333;strokeColor=#666666;" vertex="1" parent="hu6AAIm_FNznQTtF9Akm-77">
          <mxGeometry x="30" width="220" height="30" as="geometry">
            <mxRectangle width="220" height="30" as="alternateBounds" />
          </mxGeometry>
        </mxCell>
        <mxCell id="hu6AAIm_FNznQTtF9Akm-80" value="" style="shape=partialRectangle;collapsible=0;dropTarget=0;pointerEvents=0;fillColor=#f5f5f5;points=[[0,0.5],[1,0.5]];portConstraint=eastwest;top=0;left=0;right=0;bottom=0;fontColor=#333333;strokeColor=#666666;" vertex="1" parent="hu6AAIm_FNznQTtF9Akm-73">
          <mxGeometry y="90" width="250" height="30" as="geometry" />
        </mxCell>
        <mxCell id="hu6AAIm_FNznQTtF9Akm-81" value="" style="shape=partialRectangle;overflow=hidden;connectable=0;fillColor=#f5f5f5;top=0;left=0;bottom=0;right=0;fontColor=#333333;strokeColor=#666666;" vertex="1" parent="hu6AAIm_FNznQTtF9Akm-80">
          <mxGeometry width="30" height="30" as="geometry">
            <mxRectangle width="30" height="30" as="alternateBounds" />
          </mxGeometry>
        </mxCell>
        <mxCell id="hu6AAIm_FNznQTtF9Akm-82" value="q_id                                            text" style="shape=partialRectangle;overflow=hidden;connectable=0;fillColor=#f5f5f5;top=0;left=0;bottom=0;right=0;align=left;spacingLeft=6;fontColor=#333333;strokeColor=#666666;" vertex="1" parent="hu6AAIm_FNznQTtF9Akm-80">
          <mxGeometry x="30" width="220" height="30" as="geometry">
            <mxRectangle width="220" height="30" as="alternateBounds" />
          </mxGeometry>
        </mxCell>
        <mxCell id="hu6AAIm_FNznQTtF9Akm-84" value="duration                                     _int4" style="shape=partialRectangle;overflow=hidden;connectable=0;fillColor=#f5f5f5;top=0;left=0;bottom=0;right=0;align=left;spacingLeft=6;fontColor=#333333;strokeColor=#666666;" vertex="1" parent="1">
          <mxGeometry x="392" y="500" width="220" height="30" as="geometry">
            <mxRectangle width="220" height="30" as="alternateBounds" />
          </mxGeometry>
        </mxCell>
        <mxCell id="hu6AAIm_FNznQTtF9Akm-85" value="" style="shape=partialRectangle;overflow=hidden;connectable=0;fillColor=#f5f5f5;top=0;left=0;bottom=0;right=0;fontColor=#333333;strokeColor=#666666;" vertex="1" parent="1">
          <mxGeometry x="362" y="500" width="30" height="30" as="geometry">
            <mxRectangle width="30" height="30" as="alternateBounds" />
          </mxGeometry>
        </mxCell>
        <mxCell id="hu6AAIm_FNznQTtF9Akm-87" value="score                                         float8" style="shape=partialRectangle;overflow=hidden;connectable=0;fillColor=#f5f5f5;top=0;left=0;bottom=0;right=0;align=left;spacingLeft=6;fontColor=#333333;strokeColor=#666666;" vertex="1" parent="1">
          <mxGeometry x="392" y="530" width="220" height="30" as="geometry">
            <mxRectangle width="220" height="30" as="alternateBounds" />
          </mxGeometry>
        </mxCell>
        <mxCell id="hu6AAIm_FNznQTtF9Akm-88" value="" style="shape=partialRectangle;overflow=hidden;connectable=0;fillColor=#f5f5f5;top=0;left=0;bottom=0;right=0;fontColor=#333333;strokeColor=#666666;" vertex="1" parent="1">
          <mxGeometry x="362" y="530" width="30" height="30" as="geometry">
            <mxRectangle width="30" height="30" as="alternateBounds" />
          </mxGeometry>
        </mxCell>
        <mxCell id="hu6AAIm_FNznQTtF9Akm-91" value="" style="shape=partialRectangle;overflow=hidden;connectable=0;fillColor=#f5f5f5;top=0;left=0;bottom=0;right=0;fontColor=#333333;strokeColor=#666666;" vertex="1" parent="1">
          <mxGeometry x="-30" y="440" width="30" height="30" as="geometry">
            <mxRectangle width="30" height="30" as="alternateBounds" />
          </mxGeometry>
        </mxCell>
        <mxCell id="hu6AAIm_FNznQTtF9Akm-92" value="forhelp                                  boolen" style="shape=partialRectangle;overflow=hidden;connectable=0;fillColor=#f5f5f5;top=0;left=0;bottom=0;right=0;align=left;spacingLeft=6;fontColor=#333333;strokeColor=#666666;" vertex="1" parent="1">
          <mxGeometry y="440" width="220" height="30" as="geometry">
            <mxRectangle width="220" height="30" as="alternateBounds" />
          </mxGeometry>
        </mxCell>
        <mxCell id="hu6AAIm_FNznQTtF9Akm-93" value="FK1" style="shape=partialRectangle;overflow=hidden;connectable=0;fillColor=#f5f5f5;top=0;left=0;bottom=0;right=0;fontColor=#333333;strokeColor=#666666;" vertex="1" parent="1">
          <mxGeometry x="362" y="170" width="30" height="30" as="geometry">
            <mxRectangle width="30" height="30" as="alternateBounds" />
          </mxGeometry>
        </mxCell>
        <mxCell id="hu6AAIm_FNznQTtF9Akm-94" value="question                                   _text" style="shape=partialRectangle;overflow=hidden;connectable=0;fillColor=#f5f5f5;top=0;left=0;bottom=0;right=0;align=left;spacingLeft=6;fontColor=#333333;strokeColor=#666666;" vertex="1" parent="1">
          <mxGeometry x="392" y="170" width="220" height="30" as="geometry">
            <mxRectangle width="220" height="30" as="alternateBounds" />
          </mxGeometry>
        </mxCell>
        <mxCell id="hu6AAIm_FNznQTtF9Akm-95" value="student_name                           text" style="shape=partialRectangle;overflow=hidden;connectable=0;fillColor=#f5f5f5;top=0;left=0;bottom=0;right=0;align=left;spacingLeft=6;fontColor=#333333;strokeColor=#666666;" vertex="1" parent="1">
          <mxGeometry x="392" y="560" width="220" height="30" as="geometry">
            <mxRectangle width="220" height="30" as="alternateBounds" />
          </mxGeometry>
        </mxCell>
        <mxCell id="hu6AAIm_FNznQTtF9Akm-96" value="" style="shape=partialRectangle;overflow=hidden;connectable=0;fillColor=#f5f5f5;top=0;left=0;bottom=0;right=0;fontColor=#333333;strokeColor=#666666;" vertex="1" parent="1">
          <mxGeometry x="362" y="560" width="30" height="30" as="geometry">
            <mxRectangle width="30" height="30" as="alternateBounds" />
          </mxGeometry>
        </mxCell>
        <mxCell id="hu6AAIm_FNznQTtF9Akm-98" value="" style="shape=partialRectangle;overflow=hidden;connectable=0;fillColor=#f5f5f5;top=0;left=0;bottom=0;right=0;fontColor=#333333;strokeColor=#666666;" vertex="1" parent="1">
          <mxGeometry x="362" y="200" width="30" height="30" as="geometry">
            <mxRectangle width="30" height="30" as="alternateBounds" />
          </mxGeometry>
        </mxCell>
        <mxCell id="hu6AAIm_FNznQTtF9Akm-99" value="q_type                                      text" style="shape=partialRectangle;overflow=hidden;connectable=0;fillColor=#f5f5f5;top=0;left=0;bottom=0;right=0;align=left;spacingLeft=6;fontColor=#333333;strokeColor=#666666;" vertex="1" parent="1">
          <mxGeometry x="392" y="200" width="220" height="30" as="geometry">
            <mxRectangle width="220" height="30" as="alternateBounds" />
          </mxGeometry>
        </mxCell>
        <mxCell id="hu6AAIm_FNznQTtF9Akm-100" value="Administrator" style="shape=table;startSize=30;container=1;collapsible=1;childLayout=tableLayout;fixedRows=1;rowLines=0;fontStyle=1;align=center;resizeLast=1;fillColor=#dae8fc;strokeColor=#6c8ebf;" vertex="1" parent="1">
          <mxGeometry x="-30" y="110" width="250" height="120" as="geometry" />
        </mxCell>
        <mxCell id="hu6AAIm_FNznQTtF9Akm-101" value="" style="shape=partialRectangle;collapsible=0;dropTarget=0;pointerEvents=0;fillColor=#f5f5f5;points=[[0,0.5],[1,0.5]];portConstraint=eastwest;top=0;left=0;right=0;bottom=1;fontColor=#333333;strokeColor=#666666;" vertex="1" parent="hu6AAIm_FNznQTtF9Akm-100">
          <mxGeometry y="30" width="250" height="30" as="geometry" />
        </mxCell>
        <mxCell id="hu6AAIm_FNznQTtF9Akm-102" value="PK" style="shape=partialRectangle;overflow=hidden;connectable=0;fillColor=#f5f5f5;top=0;left=0;bottom=0;right=0;fontStyle=1;fontColor=#333333;strokeColor=#666666;" vertex="1" parent="hu6AAIm_FNznQTtF9Akm-101">
          <mxGeometry width="30" height="30" as="geometry">
            <mxRectangle width="30" height="30" as="alternateBounds" />
          </mxGeometry>
        </mxCell>
        <mxCell id="hu6AAIm_FNznQTtF9Akm-103" value="name                                  text" style="shape=partialRectangle;overflow=hidden;connectable=0;fillColor=#f5f5f5;top=0;left=0;bottom=0;right=0;align=left;spacingLeft=6;fontStyle=1;fontColor=#333333;strokeColor=default;gradientColor=none;" vertex="1" parent="hu6AAIm_FNznQTtF9Akm-101">
          <mxGeometry x="30" width="220" height="30" as="geometry">
            <mxRectangle width="220" height="30" as="alternateBounds" />
          </mxGeometry>
        </mxCell>
        <mxCell id="hu6AAIm_FNznQTtF9Akm-104" value="" style="shape=partialRectangle;collapsible=0;dropTarget=0;pointerEvents=0;fillColor=#f5f5f5;points=[[0,0.5],[1,0.5]];portConstraint=eastwest;top=0;left=0;right=0;bottom=0;fontColor=#333333;strokeColor=#666666;" vertex="1" parent="hu6AAIm_FNznQTtF9Akm-100">
          <mxGeometry y="60" width="250" height="30" as="geometry" />
        </mxCell>
        <mxCell id="hu6AAIm_FNznQTtF9Akm-105" value="FK1" style="shape=partialRectangle;overflow=hidden;connectable=0;fillColor=#f5f5f5;top=0;left=0;bottom=0;right=0;fontColor=#333333;strokeColor=#666666;" vertex="1" parent="hu6AAIm_FNznQTtF9Akm-104">
          <mxGeometry width="30" height="30" as="geometry">
            <mxRectangle width="30" height="30" as="alternateBounds" />
          </mxGeometry>
        </mxCell>
        <mxCell id="hu6AAIm_FNznQTtF9Akm-106" value="password                            text" style="shape=partialRectangle;overflow=hidden;connectable=0;fillColor=#f5f5f5;top=0;left=0;bottom=0;right=0;align=left;spacingLeft=6;fontColor=#333333;strokeColor=#666666;" vertex="1" parent="hu6AAIm_FNznQTtF9Akm-104">
          <mxGeometry x="30" width="220" height="30" as="geometry">
            <mxRectangle width="220" height="30" as="alternateBounds" />
          </mxGeometry>
        </mxCell>
        <mxCell id="hu6AAIm_FNznQTtF9Akm-107" value="" style="shape=partialRectangle;collapsible=0;dropTarget=0;pointerEvents=0;fillColor=#f5f5f5;points=[[0,0.5],[1,0.5]];portConstraint=eastwest;top=0;left=0;right=0;bottom=0;fontColor=#333333;strokeColor=#666666;" vertex="1" parent="hu6AAIm_FNznQTtF9Akm-100">
          <mxGeometry y="90" width="250" height="30" as="geometry" />
        </mxCell>
        <mxCell id="hu6AAIm_FNznQTtF9Akm-108" value="" style="shape=partialRectangle;overflow=hidden;connectable=0;fillColor=#f5f5f5;top=0;left=0;bottom=0;right=0;fontColor=#333333;strokeColor=#666666;" vertex="1" parent="hu6AAIm_FNznQTtF9Akm-107">
          <mxGeometry width="30" height="30" as="geometry">
            <mxRectangle width="30" height="30" as="alternateBounds" />
          </mxGeometry>
        </mxCell>
        <mxCell id="hu6AAIm_FNznQTtF9Akm-109" value="icon                                    text" style="shape=partialRectangle;overflow=hidden;connectable=0;fillColor=#f5f5f5;top=0;left=0;bottom=0;right=0;align=left;spacingLeft=6;fontColor=#333333;strokeColor=#666666;" vertex="1" parent="hu6AAIm_FNznQTtF9Akm-107">
          <mxGeometry x="30" width="220" height="30" as="geometry">
            <mxRectangle width="220" height="30" as="alternateBounds" />
          </mxGeometry>
        </mxCell>
        <mxCell id="hu6AAIm_FNznQTtF9Akm-110" value="" style="endArrow=classic;html=1;rounded=0;shape=flexArrow;width=1.1764705882352942;endSize=3.6058823529411765;endWidth=7.54325259515571;fillColor=#FFFFFF;strokeColor=#666666;" edge="1" parent="1">
          <mxGeometry width="50" height="50" relative="1" as="geometry">
            <mxPoint x="-30" y="410" as="sourcePoint" />
            <mxPoint x="-140" y="410" as="targetPoint" />
          </mxGeometry>
        </mxCell>
        <mxCell id="hu6AAIm_FNznQTtF9Akm-111" value="" style="endArrow=classic;html=1;rounded=0;shape=flexArrow;width=1.1764705882352942;endSize=3.6058823529411765;endWidth=7.54325259515571;fillColor=#FFFFFF;strokeColor=#666666;exitX=0.232;exitY=-0.014;exitDx=0;exitDy=0;exitPerimeter=0;" edge="1" parent="1" source="hu6AAIm_FNznQTtF9Akm-49">
          <mxGeometry width="50" height="50" relative="1" as="geometry">
            <mxPoint x="-30" y="450" as="sourcePoint" />
            <mxPoint x="-140" y="450" as="targetPoint" />
          </mxGeometry>
        </mxCell>
        <mxCell id="hu6AAIm_FNznQTtF9Akm-112" value="" style="endArrow=classic;html=1;rounded=0;shape=flexArrow;width=1.1764705882352942;endSize=3.6058823529411765;endWidth=7.54325259515571;fillColor=#FFFFFF;strokeColor=#666666;exitX=0.274;exitY=1.024;exitDx=0;exitDy=0;exitPerimeter=0;entryX=1.015;entryY=0.033;entryDx=0;entryDy=0;entryPerimeter=0;" edge="1" parent="1" source="hu6AAIm_FNznQTtF9Akm-107" target="hu6AAIm_FNznQTtF9Akm-2">
          <mxGeometry width="50" height="50" relative="1" as="geometry">
            <mxPoint x="48" y="288.3199999999997" as="sourcePoint" />
            <mxPoint x="-130" y="350" as="targetPoint" />
          </mxGeometry>
        </mxCell>
        <mxCell id="hu6AAIm_FNznQTtF9Akm-118" value="" style="group" vertex="1" connectable="0" parent="1">
          <mxGeometry x="220" y="180" width="140" height="10" as="geometry" />
        </mxCell>
        <mxCell id="hu6AAIm_FNznQTtF9Akm-115" value="" style="line;strokeWidth=2;html=1;gradientColor=none;dashed=1;" vertex="1" parent="hu6AAIm_FNznQTtF9Akm-118">
          <mxGeometry width="130" height="10" as="geometry" />
        </mxCell>
        <mxCell id="hu6AAIm_FNznQTtF9Akm-116" value="" style="triangle;whiteSpace=wrap;html=1;strokeColor=default;gradientColor=none;" vertex="1" parent="hu6AAIm_FNznQTtF9Akm-118">
          <mxGeometry x="130" width="10" height="10" as="geometry" />
        </mxCell>
        <mxCell id="hu6AAIm_FNznQTtF9Akm-119" value="" style="group" vertex="1" connectable="0" parent="1">
          <mxGeometry x="222" y="400" width="140" height="10" as="geometry" />
        </mxCell>
        <mxCell id="hu6AAIm_FNznQTtF9Akm-120" value="" style="line;strokeWidth=2;html=1;gradientColor=none;dashed=1;" vertex="1" parent="hu6AAIm_FNznQTtF9Akm-119">
          <mxGeometry width="130" height="10" as="geometry" />
        </mxCell>
        <mxCell id="hu6AAIm_FNznQTtF9Akm-121" value="" style="triangle;whiteSpace=wrap;html=1;strokeColor=default;gradientColor=none;" vertex="1" parent="hu6AAIm_FNznQTtF9Akm-119">
          <mxGeometry x="130" width="10" height="10" as="geometry" />
        </mxCell>
        <mxCell id="hu6AAIm_FNznQTtF9Akm-122" value="" style="group" vertex="1" connectable="0" parent="1">
          <mxGeometry x="220" y="560" width="140" height="10" as="geometry" />
        </mxCell>
        <mxCell id="hu6AAIm_FNznQTtF9Akm-123" value="" style="line;strokeWidth=2;html=1;gradientColor=none;dashed=1;" vertex="1" parent="hu6AAIm_FNznQTtF9Akm-122">
          <mxGeometry width="130" height="10" as="geometry" />
        </mxCell>
        <mxCell id="hu6AAIm_FNznQTtF9Akm-124" value="" style="triangle;whiteSpace=wrap;html=1;strokeColor=default;gradientColor=none;" vertex="1" parent="hu6AAIm_FNznQTtF9Akm-122">
          <mxGeometry x="130" width="10" height="10" as="geometry" />
        </mxCell>
        <mxCell id="hu6AAIm_FNznQTtF9Akm-125" value="&lt;font style=&quot;font-size: 14px;&quot;&gt;1&lt;/font&gt;" style="text;strokeColor=none;fillColor=none;html=1;fontSize=24;fontStyle=1;verticalAlign=middle;align=center;" vertex="1" parent="1">
          <mxGeometry x="230" y="385" width="10" height="15" as="geometry" />
        </mxCell>
        <mxCell id="hu6AAIm_FNznQTtF9Akm-126" value="&lt;font style=&quot;font-size: 14px;&quot;&gt;1&lt;/font&gt;" style="text;strokeColor=none;fillColor=none;html=1;fontSize=24;fontStyle=1;verticalAlign=middle;align=center;" vertex="1" parent="1">
          <mxGeometry x="230" y="550" width="10" height="15" as="geometry" />
        </mxCell>
        <mxCell id="hu6AAIm_FNznQTtF9Akm-127" value="&lt;font style=&quot;font-size: 14px;&quot;&gt;n&lt;/font&gt;" style="text;strokeColor=none;fillColor=none;html=1;fontSize=24;fontStyle=1;verticalAlign=middle;align=center;" vertex="1" parent="1">
          <mxGeometry x="340" y="385" width="10" height="15" as="geometry" />
        </mxCell>
        <mxCell id="hu6AAIm_FNznQTtF9Akm-128" value="&lt;font style=&quot;font-size: 14px;&quot;&gt;n&lt;/font&gt;" style="text;strokeColor=none;fillColor=none;html=1;fontSize=24;fontStyle=1;verticalAlign=middle;align=center;" vertex="1" parent="1">
          <mxGeometry x="340" y="550" width="10" height="15" as="geometry" />
        </mxCell>
      </root>
    </mxGraphModel>
  </diagram>
</mxfile>
